<?xml version="1.0" encoding="utf-8"?>
<!-- Generator: Adobe Illustrator 18.1.1, SVG Export Plug-In . SVG Version: 6.00 Build 0)  -->
<svg version="1.1" id="Layer_1" xmlns="http://www.w3.org/2000/svg" xmlns:xlink="http://www.w3.org/1999/xlink" x="0px" y="0px"
	 viewBox="424 873.6 286.4 186.4" enable-background="new 424 873.6 286.4 186.4" xml:space="preserve">
<g>
	<g>
		<path fill="#FFFFFF" d="M506.6,953.9c-0.6-8.2-4-14.6-10.3-19.2c-5.8-4.3-13.2-6.5-22.2-6.5c-11.4,0-20.6,4.5-27.4,13.4
			c-6.3,8.1-9.5,18-9.5,29.6c0,13.5,3,24.3,9.1,32.2c6.6,8.5,15.8,12.7,27.8,12.7c8.8,0,16.3-2.8,22.6-8.4c6-5.5,9.6-12.6,10.8-21.4
			h7.1c-1.5,11.2-6,20.1-13.6,26.7c-7.3,6.2-16.3,9.3-26.8,9.3c-14.7,0-25.9-5.2-33.7-15.5c-6.8-9.2-10.3-21.1-10.3-35.6
			c0-13.9,3.8-25.5,11.4-34.7c8.1-9.7,18.9-14.5,32.6-14.5c10.9,0,19.9,2.6,26.8,7.8c7.5,5.6,11.7,13.6,12.7,24H506.6z"/>
		<path fill="#29ABE2" d="M537.9,873.6h7.1V1060h-7.1V873.6z"/>
		<path fill="#FFFFFF" d="M572.7,924.3h7.1v19.6h0.4c1.5-6.1,5.1-11.2,10.8-15.5c5.7-4.2,12.1-6.3,19.2-6.3c8.4,0,15.3,2.2,20.5,6.5
			c4.5,3.6,7.3,8.2,8.4,13.8h0.4c5.8-13.5,16-20.3,30.4-20.3c9.1,0,16.2,2.6,21.4,7.8c5.7,5.7,8.6,14,8.6,24.8v65.4h-7.1v-65.6
			c0-5.7-0.9-10.5-2.8-14.4c-1.6-3.4-3.8-6-6.5-8c-2.2-1.5-4.8-2.5-7.6-3.2c-1.1-0.2-2.2-0.4-3.4-0.6c-0.9-0.1-1.7-0.2-2.6-0.2
			c-8.9,0-16.1,3-21.4,8.9c-5.7,6.3-8.6,15.1-8.6,26.3v56.7h-7.1v-65.6c0-5.6-0.9-10.3-2.6-14.2c-1.5-3.4-3.6-6-6.3-8
			c-2.1-1.6-4.6-2.7-7.5-3.4c-2-0.5-4-0.7-6.1-0.7c-7.8,0-14.6,2.8-20.3,8.4c-6.7,6.6-10.1,15.5-10.1,26.8v56.7h-7.1V924.3z"/>
	</g>
</g>
</svg>
